Coordinates
version=1
nRows=16
nColumns=42
inDegrees=yes

Units are S.I. units (second, meters, Newtons, ...)
If the header above contains a line with 'inDegrees', this indicates whether rotational values are in degrees (yes) or radians (no).

endheader
time	pelvis_tilt	pelvis_list	pelvis_rotation	pelvis_tx	pelvis_ty	pelvis_tz	hip_flexion_r	hip_adduction_r	hip_rotation_r	knee_angle_r	knee_angle_r_beta	ankle_angle_r	subtalar_angle_r	mtp_angle_r	hip_flexion_l	hip_adduction_l	hip_rotation_l	knee_angle_l	knee_angle_l_beta	ankle_angle_l	subtalar_angle_l	mtp_angle_l	lumbar_extension	lumbar_bending	lumbar_rotation	sh_tx_r	sh_ty_r	sh_tz_r	sh_plane_elev_r	sh_elev_r	sh_axial_rot_r	elbow_flex_r	pro_sup_r	sh_tx_l	sh_ty_l	sh_tz_l	sh_plane_elev_l	sh_elev_l	sh_axial_rot_l	elbow_flex_l	pro_sup_l
      3.01694910	     -8.96548209	      0.32403913	      0.46623681	      0.27232009	      0.93044663	     -0.06124119	      6.24997396	     -8.04880829	     -8.03863811	      1.15964115	      0.02023956	      4.12102421	      2.78324715	     -7.49999987	      6.07194458	     -2.06234949	     -6.25368376	      0.99753652	      0.01741030	      8.42732356	      2.84402345	     -7.49999987	      5.38648859	      5.64986316	      6.49916816	     -0.03360767	      0.00066347	     -0.00685127	    -16.19091062	      6.91361419	      8.93838942	     30.74808768	    111.98813317	     -0.03145838	     -0.01406932	     -0.00797304	     28.98177760	    120.10554561	     10.82434953	      4.00020266	      3.25541410
      3.03389830	     -9.11877586	      0.33930171	      0.40852561	      0.27160500	      0.93016376	     -0.06127850	      6.76967469	     -8.12791897	     -8.12546310	      1.78463503	      0.03114776	      4.47139776	      3.01829006	     -7.49999987	      6.52119615	     -2.05063875	     -6.33905221	      1.53016132	      0.02670635	      8.77159260	      2.97381849	     -7.49999987	      6.07707277	      6.00921910	      6.18716417	     -0.02867227	      0.00288004	     -0.00617510	    -16.01424937	      7.05316602	     10.39704328	     29.83970257	    104.64142042	     -0.02744684	     -0.01172291	     -0.00703287	     27.95254908	    119.81126629	      7.30594801	      6.44026117	      7.35555078
      3.05084750	     -8.88381848	      0.31439907	      0.35741963	      0.27664338	      0.93313304	     -0.05672862	      6.16643483	     -7.97154433	     -7.99161507	      1.18613411	      0.02070195	      4.09791687	      3.05205000	     -7.49999987	      5.88096673	     -2.09077866	     -6.30127785	      0.92367094	      0.01612110	      8.53389275	      3.15086079	     -7.49999987	      5.35812298	      5.62286578	      7.01513763	     -0.03459077	      0.00015641	     -0.00691511	    -15.97229348	      6.68967149	      8.56700843	     29.62317535	    110.89484977	     -0.03081105	     -0.01430512	     -0.00802199	     29.26241756	    119.93209560	     10.62227725	      3.77351408	      3.18161184
      3.06779660	     -8.81565504	      0.25203554	      0.32148619	      0.27652399	      0.93013812	     -0.05691626	      6.04311058	     -7.84053901	     -8.06571530	      1.17917416	      0.02058047	      4.09375022	      3.20398446	     -7.49999987	      5.74463114	     -2.20020683	     -6.30628622	      0.90151096	      0.01573433	      8.60997125	      3.23690558	     -7.49999987	      5.21156550	      5.55450213	      7.07109505	     -0.03554360	      0.00018293	     -0.00689295	    -16.34067359	      6.37010079	      9.03638330	     29.34253029	    111.40270871	     -0.03088142	     -0.01463576	     -0.00804642	     29.13993102	    120.26202124	     11.29310759	      3.88748930	      3.46247141
      3.08474580	     -8.70400568	      0.22368450	      0.26417335	      0.27642504	      0.93268999	     -0.05670199	      5.86008265	     -7.71147187	     -8.07308902	      1.11955214	      0.01953987	      4.09652937	      3.23481623	     -7.49999987	      5.55746846	     -2.28348746	     -6.37965923	      0.85775974	      0.01497073	      8.69978839	      3.49939636	     -7.49999987	      5.04649714	      5.59096620	      6.43822549	     -0.03464577	      0.00026154	     -0.00692849	    -14.62481255	      6.28090361	      8.70712771	     28.99182666	    111.64317333	     -0.03200821	     -0.01485648	     -0.00806154	     28.03413710	    120.61193774	     11.44525404	      3.88341442	      3.44165905
      3.10169490	     -8.62807804	      0.18480743	      0.26488491	      0.27621696	      0.93264627	     -0.05677673	      5.72505616	     -7.60599047	     -8.18323977	      1.06964085	      0.01866875	      4.09881124	      3.34095927	     -7.49999987	      5.44114813	     -2.36806355	     -6.38901826	      0.84467138	      0.01474230	      8.69880585	      3.58321957	     -7.49999987	      4.96835843	      5.53464943	      6.37718563	     -0.03473006	      0.00023675	     -0.00692974	    -13.92258415	      6.19924875	      8.64116718	     28.66708783	    111.30173345	     -0.03260850	     -0.01497875	     -0.00807975	     27.80773472	    121.09544370	     11.52424453	      4.28269620	      3.43296292
      3.11864410	     -8.52554829	      0.17278032	      0.23715330	      0.27611378	      0.93217536	     -0.05667948	      5.56866890	     -7.52768475	     -8.23074943	      1.01246060	      0.01767077	      4.13392347	      3.34101454	     -7.49999987	      5.29442714	     -2.43224216	     -6.55084483	      0.83339920	      0.01454556	      8.73221122	      3.68809621	     -7.49999987	      4.85267794	      5.42082743	      6.52457166	     -0.03505021	      0.00009993	     -0.00691640	    -13.66227015	      6.16111237	      8.84114984	     28.50593541	    111.39458691	     -0.03255411	     -0.01500761	     -0.00807235	     27.88412416	    121.66016215	     11.71090771	      4.44083831	      3.55351542
      3.13559320	     -8.47988038	      0.16743467	      0.23121182	      0.27592854	      0.93206802	     -0.05671182	      5.48666285	     -7.48482960	     -8.36373156	      0.96849844	      0.01690349	      4.20029446	      3.44565260	     -7.49999987	      5.23220603	     -2.48354127	     -6.65658355	      0.83059571	      0.01449663	      8.73269579	      3.69036870	     -7.49999987	      4.81052335	      5.40074511	      6.52715274	     -0.03452020	      0.00002291	     -0.00685558	    -12.37596898	      6.33937203	      8.47771220	     28.24637473	    111.08805234	     -0.03235871	     -0.01499741	     -0.00807510	     27.81484691	    121.98068477	     11.40725621	      4.77194611	      3.50968231
      3.15254240	     -8.59099884	      0.20220583	      0.22448315	      0.27520720	      0.93134561	     -0.05665860	      5.90997722	     -7.55618896	     -8.58422121	      1.53060542	      0.02671410	      4.55291941	      3.60530124	     -7.49999987	      5.63080878	     -2.51481690	     -6.92920732	      1.37433497	      0.02398667	      9.00644580	      3.86019689	     -7.49999987	      5.35280211	      5.68497868	      6.14406627	     -0.02930118	      0.00213898	     -0.00612885	    -11.80943973	      6.59493324	      9.83723258	     27.46754871	    107.11001272	     -0.02702013	     -0.01242643	     -0.00708236	     25.80559845	    122.23041998	     10.43613306	      8.30633937	      8.89382954
      3.16949150	     -8.50675658	      0.20225107	      0.27356025	      0.27584234	      0.93166113	     -0.05677878	      5.46762855	     -7.49033047	     -8.52245590	      0.90721597	      0.01583391	      4.17428449	      3.45877277	     -7.49999987	      5.23527876	     -2.49262216	     -6.79909395	      0.82068946	      0.01432373	      8.67219623	      3.69403487	     -7.49999987	      4.89263572	      5.36753853	      6.63988332	     -0.03370964	     -0.00050101	     -0.00684291	    -11.44866561	      6.66096675	      8.47920742	     27.93568095	    111.12399845	     -0.03150615	     -0.01468770	     -0.00806830	     27.93462002	    122.91451251	     10.79809790	      5.21754030	      3.66190822
      3.18644070	     -8.49016929	      0.23518752	      0.28589947	      0.27586319	      0.93129693	     -0.05673437	      5.44687178	     -7.51993646	     -8.58357967	      0.89316002	      0.01558858	      4.16576722	      3.47735590	     -7.49999987	      5.20260178	     -2.47271356	     -6.87969364	      0.80354449	      0.01402450	      8.62668936	      3.75612360	     -7.49999987	      4.88072971	      5.31799433	      6.47666377	     -0.03325534	     -0.00047481	     -0.00682393	    -10.58856208	      6.75269763	      8.15299213	     27.81357837	    111.15551568	     -0.03123274	     -0.01467378	     -0.00806888	     27.59057618	    123.78118287	     10.42931759	      5.50743066	      3.70146204
      3.20338980	     -8.46092378	      0.26471682	      0.27935592	      0.27578831	      0.93460625	     -0.05704530	      5.43054812	     -7.55327059	     -8.57254870	      0.85772683	      0.01497016	      4.05205699	      3.46154346	     -7.49999987	      5.17447998	     -2.42691822	     -6.87041243	      0.77268723	      0.01348594	      8.56064780	      3.84982344	     -7.49999987	      4.81747972	      5.21705465	      6.59783916	     -0.03336311	     -0.00068333	     -0.00676918	    -10.17098423	      6.81769030	      8.11233362	     27.67587266	    109.70120431	     -0.03042156	     -0.01461728	     -0.00804516	     28.18774281	    124.75590147	      9.43470239	      5.31961527	      3.59120106
      3.22033900	     -8.44159244	      0.29073650	      0.28719903	      0.27149099	      0.93412663	     -0.06127210	      5.51493878	     -7.69556871	     -8.57278518	      0.88381788	      0.01542553	      4.00223809	      3.48085080	     -7.49999987	      5.21825540	     -2.30720525	     -6.84280814	      0.74781565	      0.01305185	      8.59492800	      3.87297717	     -7.49999987	      4.80748806	      5.46284138	      6.48773672	     -0.03147587	     -0.00013174	     -0.00666545	    -10.18399753	      7.00721325	      8.08869707	     27.71031066	    109.71601590	     -0.02918251	     -0.01454959	     -0.00800919	     28.30494819	    124.96019857	      9.44602161	      5.31120667	      3.60100624
      3.23728810	     -8.58421759	      0.30085704	      0.37553330	      0.27157424	      0.92786141	     -0.06131950	      5.81013249	     -7.81945176	     -8.77049646	      1.00393249	      0.01752193	      3.91611912	      3.56498195	     -7.49999987	      5.46829937	     -2.19770070	     -6.59955052	      0.75612600	      0.01319689	      8.83828306	      3.92841995	     -7.49999987	      4.96621309	      5.37737875	      6.14958843	     -0.03054562	     -0.00063406	     -0.00673147	     -9.12986178	      7.39668019	      7.85910977	     28.10408330	    109.49573034	     -0.02943292	     -0.01434402	     -0.00799687	     28.70335646	    125.89070155	      8.21102421	      4.94111016	      3.55684601
      3.25423730	     -8.57426431	      0.35826762	      0.38824108	      0.27163022	      0.93405341	     -0.06120194	      5.94617404	     -7.97980747	     -8.74878733	      1.09458253	      0.01910407	      3.67769622	      3.44843534	     -7.49999987	      5.52804789	     -2.07169563	     -6.66013256	      0.73381838	      0.01280755	      8.85091346	      4.29170736	     -7.49999987	      4.82722230	      5.47841666	      5.97092506	     -0.02966458	     -0.00025428	     -0.00667488	     -8.61786254	      7.70275113	      7.58209030	     28.09963800	    109.94894598	     -0.02944778	     -0.01430295	     -0.00802528	     28.15770419	    125.78195973	      7.55846907	      5.30265652	      3.75743637
      3.27118640	     -8.61766282	      0.36148111	      0.37961242	      0.27169834	      0.93409477	     -0.06122321	      6.13152706	     -8.08008550	     -8.80125753	      1.21315015	      0.02117346	      3.59157143	      3.60649205	     -7.49999987	      5.62101089	     -1.99588580	     -6.57329360	      0.74484229	      0.01299995	      8.95170241	      4.34903618	     -7.49999987	      4.87241077	      5.49922148	      6.65316327	     -0.03069641	     -0.00047433	     -0.00664913	     -8.91149820	      7.89464994	      7.43770288	     27.61123013	    110.90897289	     -0.02832458	     -0.01402625	     -0.00799188	     29.47764799	    125.91941615	      7.09655022	      5.01423068	      3.65848356
